<?xml version="1.0" standalone="no"?>
<!DOCTYPE svg PUBLIC "-//W3C//DTD SVG 20010904//EN"
 "http://www.w3.org/TR/2001/REC-SVG-20010904/DTD/svg10.dtd">
<svg version="1.0" xmlns="http://www.w3.org/2000/svg"
 width="400.000000pt" height="376.000000pt" viewBox="0 0 400.000000 376.000000"
 preserveAspectRatio="xMidYMid meet">

<g transform="translate(0.000000,376.000000) scale(0.100000,-0.100000)"
fill="#000000" stroke="none">
<path d="M2783 2783 c9 -2 25 -2 35 0 9 3 1 5 -18 5 -19 0 -27 -2 -17 -5z"/>
<path d="M2158 2683 c-20 -3 -30 -14 -42 -44 -22 -54 -20 -57 12 -27 32 30 84
58 108 58 10 0 15 2 13 4 -8 7 -64 12 -91 9z"/>
<path d="M1797 2663 c23 -8 56 -27 73 -43 33 -31 37 -26 16 25 -15 34 -16 35
-73 34 l-58 -1 42 -15z"/>
<path d="M1950 2457 l0 -224 50 11 50 10 0 213 0 213 -50 0 -50 0 0 -223z"/>
<path d="M1480 2607 c-117 -34 -161 -76 -168 -162 -5 -63 10 -96 71 -152 50
-46 137 -90 255 -129 l81 -27 73 35 c40 20 84 39 98 43 20 6 -5 16 -123 47
-290 75 -384 135 -351 223 18 46 116 59 161 21 43 -36 86 -55 147 -64 58 -9
102 -6 111 8 3 4 -12 11 -33 14 -122 22 -140 53 -27 48 68 -3 75 -2 75 16 0
22 -21 42 -70 68 -45 23 -234 30 -300 11z m244 -23 c22 -8 20 -31 -3 -39 -21
-6 -71 10 -71 23 0 21 39 29 74 16z"/>
<path d="M2240 2600 c-54 -18 -90 -49 -90 -77 0 -11 15 -14 73 -13 93 2 91 2
78 -14 -6 -7 -39 -19 -72 -25 -47 -10 -59 -15 -50 -24 15 -15 100 -12 150 4
20 6 57 27 82 45 62 45 118 47 160 5 34 -35 36 -59 8 -95 -45 -57 -177 -106
-499 -185 -280 -69 -380 -123 -444 -242 -38 -69 -47 -172 -21 -249 20 -60 78
-129 142 -170 l43 -27 69 36 69 36 -61 32 c-104 56 -147 112 -147 193 0 82 55
151 156 196 29 13 135 44 236 70 302 77 435 131 513 209 78 78 82 181 9 245
-76 66 -283 92 -404 50z m110 -25 c0 -27 -51 -44 -79 -26 -12 8 -12 12 -2 25
17 21 81 22 81 1z"/>
<path d="M2162 2065 l-83 -22 43 -19 c50 -22 114 -77 132 -113 69 -137 -14
-240 -270 -332 -192 -70 -286 -172 -287 -314 -1 -95 59 -201 140 -246 27 -15
30 -15 121 33 l92 49 0 165 0 165 -22 -6 c-74 -22 -70 -12 -69 -197 1 -93 -2
-168 -7 -168 -19 0 -93 62 -117 98 -32 49 -40 91 -25 137 26 79 94 129 235
175 176 57 285 132 331 228 36 74 39 182 7 254 -25 55 -99 139 -122 137 -9 -1
-53 -12 -99 -24z"/>
<path d="M1998 2024 l-48 -15 0 -199 c0 -110 1 -200 3 -200 2 0 24 7 50 16
l47 16 0 199 c0 109 -1 199 -2 198 -2 0 -24 -7 -50 -15z"/>
<path d="M2128 1461 l-67 -27 45 -28 c76 -48 112 -137 84 -210 -19 -52 -82
-106 -184 -158 -55 -29 -118 -68 -139 -87 -77 -69 -105 -173 -72 -271 19 -56
82 -130 112 -130 14 0 13 3 -5 23 -34 36 -62 108 -62 160 0 99 51 158 190 217
159 68 231 129 266 227 31 88 7 196 -59 266 l-42 45 -67 -27z"/>
<path d="M2083 932 l-32 -17 28 -16 c16 -9 42 -39 57 -65 46 -79 32 -188 -33
-256 -38 -40 -5 -38 41 2 49 43 76 107 76 179 0 67 -10 100 -47 154 -29 41
-43 44 -90 19z"/>
<path d="M1991 895 l-33 -15 6 -257 c11 -413 30 -614 50 -510 19 101 35 797
19 797 -5 -1 -23 -7 -42 -15z"/>
</g>
</svg>
