<?xml version="1.0" standalone="no"?>
<!DOCTYPE svg PUBLIC "-//W3C//DTD SVG 20010904//EN"
 "http://www.w3.org/TR/2001/REC-SVG-20010904/DTD/svg10.dtd">
<svg version="1.0" xmlns="http://www.w3.org/2000/svg"
 width="500.000000pt" height="500.000000pt" viewBox="0 0 500.000000 500.000000"
 preserveAspectRatio="xMidYMid meet">

<g transform="translate(0.000000,500.000000) scale(0.100000,-0.100000)"
fill="#000000" stroke="none">
<path d="M637 3210 c-63 -16 -112 -47 -160 -100 -55 -61 -77 -122 -77 -210 0
-122 16 -143 381 -505 348 -345 367 -369 355 -449 -17 -108 -122 -176 -227
-144 -32 9 -68 36 -139 104 l-95 92 19 33 c38 64 17 155 -45 202 -15 10 -47
21 -72 24 -125 14 -211 -133 -137 -237 38 -53 92 -71 175 -56 40 7 40 6 125
-79 103 -105 138 -125 220 -125 121 0 210 83 212 198 2 99 0 102 -367 472
-371 374 -368 371 -368 480 0 199 216 330 394 239 24 -12 80 -57 125 -100 44
-44 84 -79 89 -79 4 0 49 40 99 88 77 74 100 91 149 106 74 23 138 18 212 -19
99 -48 153 -148 142 -264 -6 -69 -24 -108 -79 -167 l-41 -44 -73 0 -74 0 -32
65 c-18 36 -37 65 -43 65 -6 0 -34 -47 -63 -105 -31 -63 -58 -105 -67 -105 -8
0 -24 18 -35 40 -11 22 -25 40 -30 40 -5 0 -19 -18 -30 -40 -11 -22 -27 -40
-35 -40 -9 0 -36 42 -67 105 -29 58 -57 105 -63 105 -6 0 -25 -29 -43 -65
l-31 -64 -68 -3 c-55 -2 -68 -6 -71 -20 -3 -16 6 -18 77 -18 l81 0 20 40 c11
22 26 40 33 40 7 0 36 -47 65 -105 28 -58 58 -105 64 -105 7 0 22 17 33 38 11
20 27 37 35 37 8 0 24 -17 35 -37 11 -21 25 -38 30 -38 6 0 35 47 65 105 30
58 61 105 67 105 7 0 22 -18 33 -40 l20 -40 94 0 94 0 44 53 c75 87 93 130 93
222 -1 134 -55 221 -175 281 -45 23 -68 28 -130 28 -102 0 -164 -30 -264 -124
l-76 -73 -79 77 c-43 42 -99 85 -122 95 -53 24 -150 33 -202 21z m-11 -1009
c35 -21 60 -78 50 -115 -17 -70 -97 -111 -158 -82 -40 19 -68 62 -68 106 0 42
15 67 53 90 41 25 83 25 123 1z"/>
<path d="M1620 2367 l0 -93 42 -1 c27 -2 49 4 60 14 24 22 23 78 -2 103 -23
23 -33 24 -61 10 -17 -10 -19 -7 -19 25 0 19 -4 35 -10 35 -6 0 -10 -38 -10
-93z m88 11 c17 -17 15 -64 -3 -81 -20 -21 -54 -10 -61 20 -13 51 31 94 64 61z"/>
<path d="M1780 2446 c0 -9 5 -16 10 -16 6 0 10 4 10 9 0 6 -4 13 -10 16 -5 3
-10 -1 -10 -9z"/>
<path d="M2390 2425 c0 -33 -1 -34 -25 -23 -38 17 -75 -12 -75 -58 0 -60 14
-74 70 -72 l50 2 0 93 c0 55 -4 93 -10 93 -5 0 -10 -16 -10 -35z m-10 -61 c14
-35 13 -41 -10 -64 -29 -29 -60 -11 -60 33 0 57 52 80 70 31z"/>
<path d="M2936 2444 c-10 -25 -1 -27 19 -4 15 17 16 20 3 20 -9 0 -19 -7 -22
-16z"/>
<path d="M3120 2425 c0 -32 -2 -34 -19 -23 -52 32 -103 -51 -67 -107 14 -21
24 -25 61 -23 l45 1 0 94 c0 55 -4 93 -10 93 -5 0 -10 -16 -10 -35z m-12 -47
c20 -20 15 -76 -8 -88 -15 -8 -24 -6 -40 10 -22 22 -25 42 -10 71 12 21 40 25
58 7z"/>
<path d="M3450 2446 c0 -9 5 -16 10 -16 6 0 10 4 10 9 0 6 -4 13 -10 16 -5 3
-10 -1 -10 -9z"/>
<path d="M4106 2444 c-10 -25 -1 -27 19 -4 15 17 16 20 3 20 -9 0 -19 -7 -22
-16z"/>
<path d="M4406 2444 c-10 -25 -1 -27 19 -4 15 17 16 20 3 20 -9 0 -19 -7 -22
-16z"/>
<path d="M4740 2365 c0 -57 4 -95 10 -95 6 0 10 38 10 95 0 57 -4 95 -10 95
-6 0 -10 -38 -10 -95z"/>
<path d="M1342 2427 c-30 -31 -30 -104 -2 -135 22 -23 93 -31 105 -12 4 6 -9
10 -33 10 -48 0 -72 24 -72 72 0 44 25 68 73 68 20 0 37 5 37 10 0 6 -19 10
-43 10 -33 0 -49 -6 -65 -23z"/>
<path d="M2660 2361 c0 -108 18 -123 22 -18 l3 72 26 -70 c15 -38 31 -71 36
-72 6 -2 24 31 39 74 l29 78 3 -77 c4 -109 22 -98 22 13 0 81 -2 90 -17 87
-12 -2 -27 -27 -43 -71 -14 -37 -27 -67 -30 -67 -3 0 -17 30 -30 67 -16 43
-32 69 -43 71 -15 3 -17 -7 -17 -87z"/>
<path d="M3895 2425 c-35 -34 -35 -96 0 -131 21 -21 33 -25 73 -22 l47 3 3 43
c3 42 3 42 -30 41 -30 0 -31 -1 -10 -9 15 -6 22 -18 22 -35 0 -22 -4 -25 -39
-25 -45 0 -71 26 -71 70 0 46 26 70 76 70 24 0 44 5 44 10 0 6 -20 10 -45 10
-35 0 -52 -6 -70 -25z"/>
<path d="M2137 2414 c-10 -13 -13 -24 -7 -24 5 0 10 -20 10 -44 0 -24 3 -51 6
-60 7 -17 54 -22 54 -6 0 6 -3 9 -7 9 -28 -4 -33 4 -33 51 0 43 3 50 20 50 11
0 20 5 20 10 0 6 -9 10 -19 10 -11 0 -21 6 -23 14 -2 10 -8 7 -21 -10z"/>
<path d="M1503 2403 c-23 -9 -13 -18 19 -18 23 0 34 -5 36 -17 3 -14 -3 -18
-27 -18 -31 0 -61 -22 -61 -44 0 -23 25 -35 68 -33 l42 1 0 58 c0 46 -4 59
-19 68 -21 11 -38 12 -58 3z m57 -83 c0 -26 -36 -46 -56 -29 -20 16 -17 28 9
39 35 14 47 12 47 -10z"/>
<path d="M1780 2341 c0 -41 4 -71 10 -71 6 0 10 28 10 64 0 36 -4 68 -10 71
-6 4 -10 -20 -10 -64z"/>
<path d="M1881 2401 c-8 -5 -20 -7 -28 -4 -10 4 -13 -10 -13 -61 0 -37 4 -66
10 -66 6 0 10 19 10 43 0 50 18 81 46 75 16 -3 20 -13 22 -61 4 -75 22 -74 22
1 0 74 -25 100 -69 73z"/>
<path d="M2010 2390 c-26 -26 -26 -81 -2 -103 20 -19 77 -23 87 -7 4 6 -8 10
-27 10 -32 0 -58 14 -58 32 0 4 20 8 45 8 41 0 45 2 45 23 0 27 -28 57 -53 57
-9 0 -26 -9 -37 -20z m68 -22 c3 -15 -4 -18 -32 -18 -38 0 -44 8 -24 28 17 17
52 11 56 -10z"/>
<path d="M2466 2394 c-25 -24 -31 -64 -15 -93 12 -21 24 -27 57 -29 25 -2 42
1 42 7 0 6 -16 11 -35 11 -24 0 -37 6 -45 19 -9 18 -6 20 37 23 45 3 48 5 45
28 -5 45 -55 65 -86 34z m62 -26 c3 -15 -4 -18 -33 -18 -33 0 -35 2 -25 21 14
24 53 22 58 -3z"/>
<path d="M2900 2390 c-26 -26 -26 -81 -2 -103 20 -19 77 -23 87 -7 4 6 -8 10
-27 10 -32 0 -58 14 -58 32 0 4 20 8 45 8 41 0 45 2 45 23 0 27 -28 57 -53 57
-9 0 -26 -9 -37 -20z m68 -22 c3 -15 -4 -18 -32 -18 -38 0 -44 8 -24 28 17 17
52 11 56 -10z"/>
<path d="M3202 2394 c-28 -20 -31 -83 -4 -107 20 -19 77 -23 87 -7 4 6 -10 10
-33 10 -27 0 -42 5 -46 16 -9 24 -9 24 39 24 41 0 45 2 45 24 0 24 -32 56 -55
56 -6 0 -21 -7 -33 -16z m58 -8 c0 -2 3 -11 6 -20 5 -13 -1 -16 -30 -16 -38 0
-44 8 -24 28 11 11 48 17 48 8z"/>
<path d="M3340 2390 c-26 -26 -26 -81 -2 -103 20 -19 67 -23 77 -7 4 6 -8 10
-28 10 -36 0 -47 12 -47 54 0 29 18 46 48 46 13 0 20 4 17 10 -10 16 -44 11
-65 -10z"/>
<path d="M3450 2341 c0 -41 4 -71 10 -71 6 0 10 28 10 64 0 36 -4 68 -10 71
-6 4 -10 -20 -10 -64z"/>
<path d="M3551 2401 c-8 -5 -20 -7 -28 -4 -10 4 -13 -10 -13 -61 0 -37 4 -66
10 -66 6 0 10 19 10 43 0 50 18 81 46 75 16 -3 20 -13 22 -61 4 -75 22 -74 22
1 0 74 -25 100 -69 73z"/>
<path d="M3680 2390 c-26 -26 -26 -81 -2 -103 20 -19 77 -23 87 -7 4 6 -8 10
-27 10 -32 0 -58 14 -58 32 0 4 20 8 45 8 41 0 45 2 45 23 0 27 -28 57 -53 57
-9 0 -26 -9 -37 -20z m68 -22 c3 -15 -4 -18 -32 -18 -38 0 -44 8 -24 28 17 17
52 11 56 -10z"/>
<path d="M4076 2394 c-25 -24 -31 -64 -15 -93 12 -21 24 -27 57 -29 25 -2 42
1 42 7 0 6 -16 11 -35 11 -24 0 -37 6 -45 19 -9 18 -6 20 37 23 45 3 48 5 45
28 -5 45 -55 65 -86 34z m62 -26 c3 -15 -4 -18 -33 -18 -33 0 -35 2 -25 21 14
24 53 22 58 -3z"/>
<path d="M4200 2342 c0 -82 17 -98 22 -21 3 55 21 78 52 66 12 -5 16 -20 16
-62 0 -30 5 -55 10 -55 6 0 10 27 10 60 0 50 -3 61 -21 71 -15 8 -28 8 -44 1
-16 -7 -26 -7 -34 1 -8 8 -11 -8 -11 -61z"/>
<path d="M4370 2390 c-43 -43 -14 -120 45 -120 19 0 37 5 40 10 4 6 -8 10 -27
10 -32 0 -58 14 -58 32 0 4 20 8 45 8 41 0 45 2 45 23 0 27 -28 57 -53 57 -9
0 -26 -9 -37 -20z m68 -22 c3 -15 -4 -18 -32 -18 -38 0 -44 8 -24 28 17 17 52
11 56 -10z"/>
<path d="M4500 2343 c0 -84 17 -100 22 -20 2 43 7 54 26 62 12 5 22 13 22 17
0 12 -25 9 -38 -4 -10 -10 -15 -10 -22 2 -7 10 -10 -8 -10 -57z"/>
<path d="M4623 2403 c-23 -9 -13 -18 19 -18 23 0 34 -5 36 -17 3 -14 -3 -18
-27 -18 -31 0 -61 -22 -61 -44 0 -23 25 -35 68 -33 l42 1 0 58 c0 46 -4 59
-19 68 -21 11 -38 12 -58 3z m57 -83 c0 -26 -36 -46 -56 -29 -20 16 -17 28 9
39 35 14 47 12 47 -10z"/>
<path d="M4820 2390 c-43 -43 -14 -120 45 -120 19 0 37 5 40 10 4 6 -8 10 -27
10 -32 0 -58 14 -58 32 0 4 20 8 45 8 41 0 45 2 45 23 0 27 -28 57 -53 57 -9
0 -26 -9 -37 -20z m68 -22 c3 -15 -4 -18 -32 -18 -38 0 -44 8 -24 28 17 17 52
11 56 -10z"/>
<path d="M2090 1995 l0 -95 39 0 c82 0 114 30 113 104 -1 57 -35 86 -103 86
l-49 0 0 -95z m110 55 c45 -45 13 -130 -50 -130 l-30 0 0 75 0 75 30 0 c17 0
39 -9 50 -20z"/>
<path d="M2600 1984 c0 -97 -2 -106 -20 -111 -25 -7 -26 -23 -2 -23 41 1 47
15 50 130 3 95 2 110 -12 110 -14 0 -16 -16 -16 -106z"/>
<path d="M3210 1995 l0 -95 48 0 c35 0 54 5 65 18 22 24 22 58 0 71 -15 8 -16
12 -5 22 18 19 15 57 -7 69 -11 5 -38 10 -60 10 l-41 0 0 -95z m95 45 c0 -22
-5 -25 -37 -28 -36 -3 -38 -2 -38 28 0 30 2 31 38 28 32 -3 37 -6 37 -28z m6
-66 c20 -24 -1 -48 -45 -52 -35 -3 -36 -2 -36 32 0 34 2 36 34 36 18 0 39 -7
47 -16z"/>
<path d="M3380 1995 l0 -95 55 0 c30 0 55 5 55 10 0 6 -20 10 -45 10 -45 0
-45 0 -45 35 0 34 1 35 40 35 22 0 40 5 40 10 0 6 -18 10 -40 10 -38 0 -40 2
-40 30 0 29 2 30 45 30 25 0 45 5 45 10 0 6 -25 10 -55 10 l-55 0 0 -95z"/>
<path d="M3530 1995 c0 -57 4 -95 10 -95 6 0 10 18 10 40 0 55 31 55 62 0 13
-22 29 -40 36 -40 10 0 6 13 -12 44 -21 36 -23 45 -11 50 8 3 17 17 21 31 10
39 -19 65 -73 65 l-43 0 0 -95z m91 59 c19 -23 -1 -48 -40 -52 -30 -3 -31 -2
-31 32 0 33 2 36 29 36 16 0 34 -7 42 -16z"/>
<path d="M3670 2080 c0 -5 14 -10 30 -10 l30 0 0 -85 c0 -50 4 -85 10 -85 6 0
10 35 10 85 l0 85 30 0 c17 0 30 5 30 10 0 6 -30 10 -70 10 -40 0 -70 -4 -70
-10z"/>
<path d="M3840 1995 c0 -57 4 -95 10 -95 6 0 10 20 10 45 l0 45 50 0 50 0 0
-45 c0 -33 4 -45 15 -45 12 0 15 17 15 95 0 78 -3 95 -15 95 -11 0 -15 -11
-15 -40 l0 -40 -50 0 -50 0 0 40 c0 22 -4 40 -10 40 -6 0 -10 -38 -10 -95z"/>
<path d="M4040 1995 l0 -95 50 0 c28 0 50 5 50 10 0 6 -18 10 -40 10 -39 0
-40 1 -40 35 0 34 1 35 40 35 22 0 40 5 40 10 0 6 -18 10 -40 10 -38 0 -40 2
-40 30 0 28 2 30 40 30 22 0 40 5 40 10 0 6 -22 10 -50 10 l-50 0 0 -95z"/>
<path d="M2290 1973 c0 -42 4 -73 10 -73 6 0 10 25 10 55 0 43 4 56 19 64 10
6 21 8 24 5 3 -3 8 -1 12 5 4 7 -4 11 -19 11 -14 0 -28 -5 -32 -11 -4 -8 -9
-7 -15 2 -5 9 -9 -14 -9 -58z"/>
<path d="M2680 2021 c-16 -31 -12 -86 8 -104 20 -19 77 -23 87 -7 4 6 -10 10
-33 10 -38 0 -52 11 -52 41 0 5 23 9 51 9 48 0 50 1 43 23 -11 36 -25 47 -60
47 -23 0 -37 -6 -44 -19z m68 -3 c23 -23 13 -38 -23 -38 -22 0 -35 5 -35 13 0
16 20 37 35 37 6 0 16 -5 23 -12z"/>
<path d="M2830 2029 c0 -7 11 -8 29 -4 23 5 32 2 40 -13 13 -25 5 -32 -36 -32
-40 0 -66 -38 -43 -65 15 -18 61 -20 78 -3 9 9 12 9 12 0 0 -7 5 -12 10 -12
13 0 13 96 0 121 -8 14 -21 19 -50 19 -22 0 -40 -5 -40 -11z m71 -81 c-11 -30
-61 -38 -61 -10 0 25 8 32 41 32 25 0 27 -3 20 -22z"/>
<path d="M2970 1968 c0 -39 4 -68 10 -68 6 0 10 22 10 49 0 32 6 55 16 65 36
37 64 10 64 -61 0 -29 5 -53 10 -53 16 0 12 116 -4 129 -7 6 -34 10 -60 10
l-46 -2 0 -69z"/>
<path d="M2390 1915 c0 -8 7 -15 15 -15 8 0 15 7 15 15 0 8 -7 15 -15 15 -8 0
-15 -7 -15 -15z"/>
</g>
</svg>
